
<svg width="548" height="295" viewBox="0 0 548 295" fill="none" xmlns="http://www.w3.org/2000/svg">
<path d="M34.625 2.75C40.5417 37.4167 48.4583 54.75 58.375 54.75H61V56.875L53.0625 63.125L66.25 90.125H53.0625V86L47.8125 63.125H13.5625L16.1875 81.8125L10.9375 94.3125H5.625L3 92.25H0.375C9.16667 65.9167 13.5625 42.3333 13.5625 21.5V13.125L10.9375 11.0625V9C17.6042 4.83333 25.5 2.75 34.625 2.75ZM18.8125 52.6875L16.1875 54.75V56.875L34.625 54.75H42.5625L29.375 15.25C22.3333 15.25 18.8125 23.5625 18.8125 40.1875V52.6875Z" fill="#FF4C00"/>
<path d="M82.1875 24.0625L94.125 27L107.812 24.0625C112.354 34.5625 114.625 43.3333 114.625 50.375L97.5625 57.6875V56.25L92.4375 57.6875V67.9375C92.4375 71.1875 94.1458 74.5833 97.5625 78.125V79.625L92.4375 84C88.9792 84 84.9792 65.4792 80.4375 28.4375L78.75 27V25.5L80.4375 24.0625H82.1875ZM89 32.8125V47.4375C89 49.3958 92.4167 50.8542 99.25 51.8125C104.958 50.5625 107.812 49.1042 107.812 47.4375V43.0625C107.812 37.7708 105.521 33.875 100.938 31.375L89 32.8125ZM97.5625 38.6875H99.25L102.688 41.625V43.0625L99.25 46H97.5625L94.125 43.0625V41.625L97.5625 38.6875Z" fill="#FF4C00"/>
<path d="M213.438 62.25V78.375L209.375 83C206.333 83 204.292 73.7917 203.25 55.375L205.312 53.0625V50.75L201.188 39.25C193.062 39.25 189 45.3958 189 57.6875C189 66.8958 186.958 71.5 182.875 71.5L178.812 62.25L180.875 50.75L174.75 43.875V41.5625C167.917 41.5625 163.167 55.375 160.5 83H158.438L154.375 78.375L156.438 71.5L154.375 60C157.958 40.0417 164.75 30.0625 174.75 30.0625H178.812L186.938 36.9375C186.938 33.8958 193.062 30.8333 205.312 27.75L213.438 62.25Z" fill="#FF4C00"/>
<path d="M269.375 29.5C283.125 37.125 290 42.3125 290 45.0625V55.4375L282.25 63.25H277.062L259 60.625C259 65.8333 268.479 69.2917 287.438 71L290 73.625V76.1875L274.5 84C262.833 84 254.229 79.6667 248.688 71V60.625C248.688 47 253.854 36.625 264.188 29.5H269.375ZM266.75 42.5L261.625 50.25L279.688 52.875V45.0625L266.75 42.5Z" fill="#FF4C00"/>
<path d="M358.688 21.5H363C366.875 21.5 374.708 41.6042 386.5 81.8125L384.375 84.5625H380.062C376.896 84.5625 371.917 70.0417 365.125 41H363C354.417 50.3333 350.125 56.8333 350.125 60.5H345.812C344.271 55.625 341.417 50.0625 337.25 43.8125H335.125C324.375 69.9375 317.229 82.9375 313.688 82.8125V71.625L333 24.3125H335.125L348 43.8125H350.125L358.688 21.5Z" fill="#FF4C00"/>
<path d="M452.875 16.8125L457.062 21.125V29.8125L452.875 64.5V73.1875L444.562 84H442.5V73.1875H423.812C418.562 73.1875 413.708 59.4583 409.25 32C411.917 25.4583 414.688 21.8333 417.562 21.125L419.625 23.3125H421.75L419.625 34.125L425.875 64.5H438.375C442.875 64.5 447.021 48.6042 450.812 16.8125H452.875Z" fill="#FF4C00"/>
<path d="M543.562 16.8125L547.75 21.125V29.8125L543.562 64.5V73.1875L535.25 84H533.188V73.1875H514.5C509.25 73.1875 504.396 59.4583 499.938 32C502.604 25.4583 505.375 21.8333 508.25 21.125L510.312 23.3125H512.438L510.312 34.125L516.562 64.5H529.062C533.562 64.5 537.708 48.6042 541.5 16.8125H543.562ZM523.25 16.5625C518.292 16.5625 515.104 12.625 513.688 4.75C514.771 1.625 515.833 0.0625 516.875 0.0625C518.292 0.0625 519 2.41667 519 7.125C520.083 8.70833 521.146 9.91667 522.188 10.75C523.271 11.5417 524.333 11.9167 525.375 11.875L527.688 12.0625H530.125C531.167 12.1042 532.208 11.7292 533.25 10.9375C534.333 10.1042 535.396 8.875 536.438 7.25C537.354 4.5 538.521 2.60417 539.938 1.5625C541.604 0.3125 542.229 1.4375 541.812 4.9375C540.396 12.8125 537.188 16.75 532.188 16.75H523.75L523.938 16.5625H523.25Z" fill="#FF4C00"/>
<path d="M97.375 146.188C97.375 152.562 118.062 160.312 159.438 169.438C177.188 183.021 186.062 203.854 186.062 231.938C172.812 259.354 152.125 273.062 124 273.062L112.875 274.875V290.938L108.438 294.5C102.521 292.083 99.5625 289.104 99.5625 285.562L104 274.875V262.312L106.25 260.562L104 258.75V257C104 241.208 103.542 227.25 102.625 215.125C101.708 203 100.5 192.708 99 184.25C97.5417 175.75 95.875 169.083 94 164.25C92.1667 159.375 90.3333 156.333 88.5 155.125C91.3333 149.75 94.2917 146.771 97.375 146.188ZM104 164.062V165.812L112.875 257L110.688 264.125V267.688L112.875 269.5V271.25C154.292 263.625 175 250.521 175 231.938V215.875L172.75 208.75L175 206.938V205.125C166.417 177.75 145.708 164.062 112.875 164.062H104ZM137.312 210.5H141.688L146.125 214.062V215.875L141.688 219.438H137.312L132.875 215.875V214.062L137.312 210.5Z" fill="#FF4C00"/>
<path d="M238.375 185.812L242.562 190.125V198.812L238.375 233.5V242.188L230.062 253H228V242.188H209.312C204.062 242.188 199.208 228.458 194.75 201C197.417 194.458 200.188 190.833 203.062 190.125L205.125 192.312H207.25L205.125 203.125L211.375 233.5H223.875C228.375 233.5 232.521 217.604 236.312 185.812H238.375Z" fill="#FF4C00"/>
<path d="M299.625 207.438V219.312L301.562 253H297.688C295.104 253 293.812 250.354 293.812 245.062H270.688L261 235.188V223.312C261 209.812 272.583 200.562 295.75 195.562L299.625 207.438ZM268.75 233.188L272.562 237.125H286.125L291.875 231.188V217.375C291.875 208.125 290.604 203.5 288.062 203.5C278.104 207.583 271.667 212.854 268.75 219.312V233.188ZM278.375 217.375H280.312L284.188 221.312V225.25L280.312 229.25H278.375L274.5 225.25V221.312L278.375 217.375Z" fill="#FF4C00"/>
<path d="M351.188 188.312C354.562 188.312 357.208 196.438 359.125 212.688H361.062L378.312 214.625L380.062 196.125L378.125 194.188L380.062 192.25H385.875L387.812 194.188H389.75L385.125 205.562L385.5 216.438L384.125 222.438V229.625L389.938 249.188L386.062 253.125H384.125C381.583 253.125 379.646 247.896 378.312 237.438L380.25 224.375C380.25 220.875 373.208 218.271 359.125 216.562L363 251.188L361.062 253.125H353.312L349.438 249.188C352.312 249.188 353.604 238.958 353.312 218.5H345.562V214.625C350.729 214.625 353.312 213.312 353.312 210.688C349.354 201.688 346.062 194.229 343.438 188.312H351.188Z" fill="#FF4C00"/>
<path d="M456 207.438V219.312L457.938 253H454.062C451.479 253 450.188 250.354 450.188 245.062H427.062L417.375 235.188V223.312C417.375 209.812 428.958 200.562 452.125 195.562L456 207.438ZM425.125 233.188L428.938 237.125H442.5L448.25 231.188V217.375C448.25 208.125 446.979 203.5 444.438 203.5C434.479 207.583 428.042 212.854 425.125 219.312V233.188ZM434.75 217.375H436.688L440.562 221.312V225.25L436.688 229.25H434.75L430.875 225.25V221.312L434.75 217.375Z" fill="#FF4C00"/>
<path d="M248.881 118.503C244.146 119.83 241.019 122.567 239.499 126.714C238.007 130.81 237.93 135.246 239.268 140.02C240.292 143.671 242.011 147.105 244.428 150.323C246.884 153.529 249.858 156.265 253.349 158.532C257.223 161.081 261.232 162.727 265.378 163.469C269.552 164.16 273.706 163.926 277.838 162.768C279.564 162.284 281.244 161.64 282.879 160.836C284.543 159.98 286.068 159.012 287.452 157.931C288.877 156.84 290.122 155.647 291.188 154.353C292.253 153.059 293.104 151.695 293.741 150.262L248.881 118.503ZM317.689 156.272C315.282 156.947 312.353 157.227 308.902 157.112C305.28 157.002 301.188 155.293 296.626 151.985C295.677 153.852 294.495 155.654 293.078 157.393C291.702 159.12 290.071 160.789 288.185 162.399C284.524 165.546 279.965 167.884 274.508 169.413C265.28 171.999 256.914 171.099 249.41 166.711C241.895 162.283 236.816 155.355 234.173 145.927C230.508 132.847 234.196 122.77 245.238 115.694C242.867 113.719 240.956 111.766 239.506 109.836C238.086 107.854 237.055 105.72 236.414 103.433C235.233 99.2203 235.67 94.8355 237.725 90.2786C239.78 85.7217 242.913 82.8528 247.126 81.6722C249.854 80.9075 252.922 80.8915 256.33 81.6241C256.758 81.7636 257.153 81.7828 257.514 81.6816C258.437 81.423 258.946 80.3066 259.042 78.3325L261.81 77.5566L272.327 92.8483L269.559 93.6242C265.857 88.9066 261.747 86.2073 257.229 85.5263C253.482 84.9751 250.446 85.0257 248.119 85.6778C246.795 86.0489 245.659 86.627 244.71 87.412C243.762 88.1971 243.01 89.1434 242.455 90.2509C241.929 91.3071 241.614 92.4989 241.51 93.8262C241.446 95.1422 241.617 96.5224 242.022 97.9668C242.764 100.615 243.993 103.148 245.709 105.566C247.414 107.944 249.732 110.194 252.664 112.315L295.921 143.68C298.24 136.669 299.295 131.094 299.087 126.955C299.009 125.289 298.871 123.791 298.672 122.462C298.461 121.094 298.21 119.887 297.917 118.844C296.827 114.953 295.037 113.355 292.55 114.053L287.134 115.571L286.29 112.561L312.951 105.089L313.794 108.098L308.378 109.617C304.606 110.674 302.974 116.042 303.48 125.723C303.727 131.236 302.259 137.965 299.077 145.911C304.98 150.141 310.719 151.475 316.296 149.912L317.259 149.642C322.805 147.352 325.937 143.705 326.655 138.701L329.62 137.934L327.318 153.574L317.689 156.272Z" fill="#FF4C00"/>
</svg>
