
<svg width="542" height="97" viewBox="0 0 542 97" fill="none" xmlns="http://www.w3.org/2000/svg">
<path d="M120.125 38.375V50.25L122.062 83.9375H118.188C115.604 83.9375 114.312 81.2917 114.312 76H91.1875L81.5 66.125V54.25C81.5 40.75 93.0833 31.5 116.25 26.5L120.125 38.375ZM89.25 64.125L93.0625 68.0625H106.625L112.375 62.125V48.3125C112.375 39.0625 111.104 34.4375 108.562 34.4375C98.6042 38.5208 92.1667 43.7917 89.25 50.25V64.125ZM98.875 48.3125H100.812L104.688 52.25V56.1875L100.812 60.1875H98.875L95 56.1875V52.25L98.875 48.3125Z" fill="#FF4C00"/>
<path d="M207.188 16.75L211.375 21.0625V29.75L207.188 64.4375V73.125L198.875 83.9375H196.812V73.125H178.125C172.875 73.125 168.021 59.3958 163.562 31.9375C166.229 25.3958 169 21.7708 171.875 21.0625L173.938 23.25H176.062L173.938 34.0625L180.188 64.4375H192.688C197.188 64.4375 201.333 48.5417 205.125 16.75H207.188ZM186.875 16.5C181.917 16.5 178.729 12.5625 177.312 4.6875C178.396 1.5625 179.458 0 180.5 0C181.917 0 182.625 2.35417 182.625 7.0625C183.708 8.64583 184.771 9.85417 185.812 10.6875C186.896 11.4792 187.958 11.8542 189 11.8125L191.312 12H193.75C194.792 12.0417 195.833 11.6667 196.875 10.875C197.958 10.0417 199.021 8.8125 200.062 7.1875C200.979 4.4375 202.146 2.54167 203.562 1.5C205.229 0.25 205.854 1.375 205.438 4.875C204.021 12.75 200.812 16.6875 195.812 16.6875H187.375L187.562 16.5H186.875Z" fill="#FF4C00"/>
<path d="M291.562 21.4375H295.875C299.75 21.4375 307.583 41.5417 319.375 81.75L317.25 84.5H312.938C309.771 84.5 304.792 69.9792 298 40.9375H295.875C287.292 50.2708 283 56.7708 283 60.4375H278.688C277.146 55.5625 274.292 50 270.125 43.75H268C257.25 69.875 250.104 82.875 246.562 82.75V71.5625L265.875 24.25H268L280.875 43.75H283L291.562 21.4375Z" fill="#FF4C00"/>
<path d="M385.75 16.75L389.938 21.0625V29.75L385.75 64.4375V73.125L377.438 83.9375H375.375V73.125H356.688C351.438 73.125 346.583 59.3958 342.125 31.9375C344.792 25.3958 347.562 21.7708 350.438 21.0625L352.5 23.25H354.625L352.5 34.0625L358.75 64.4375H371.25C375.75 64.4375 379.896 48.5417 383.688 16.75H385.75Z" fill="#FF4C00"/>
<path d="M440.938 19.25C444.312 19.25 446.958 27.375 448.875 43.625H450.812L468.062 45.5625L469.812 27.0625L467.875 25.125L469.812 23.1875H475.625L477.562 25.125H479.5L474.875 36.5L475.25 47.375L473.875 53.375V60.5625L479.688 80.125L475.812 84.0625H473.875C471.333 84.0625 469.396 78.8333 468.062 68.375L470 55.3125C470 51.8125 462.958 49.2083 448.875 47.5L452.75 82.125L450.812 84.0625H443.062L439.188 80.125C442.062 80.125 443.354 69.8958 443.062 49.4375H435.312V45.5625C440.479 45.5625 443.062 44.25 443.062 41.625C439.104 32.625 435.812 25.1667 433.188 19.25H440.938Z" fill="#FF4C00"/>
<path d="M519.25 29.75C529.042 29.75 536.479 34.9167 541.562 45.25V54.9375C529.854 59.6458 521.083 65.4375 515.25 72.3125L519.25 76.1875H523.312C531.438 76.1875 535.5 72.9583 535.5 66.5L539.562 70.375V82L537.5 83.9375L535.5 82L533.438 83.9375C515.896 83.9375 507.125 80.0625 507.125 72.3125V70.375C512.583 61.875 522.042 55.4375 535.5 51.0625C535.5 44.0208 531.438 39.5 523.312 37.5L515.25 39.4375L511.188 35.5625C511.188 33.6458 513.875 31.7083 519.25 29.75Z" fill="#FF4C00"/>
<path d="M28.5625 8.5625L34.625 10.5625L52.875 8.5625L58.9375 16.5625L54.875 20.5625L48.8125 16.5625H46.8125L36.6875 18.5625L46.8125 94.4375L40.75 96.4375C35.3333 94.4375 32.625 92.4375 32.625 90.4375L34.625 88.4375H36.6875L30.625 18.5625H12.375L6.3125 22.5625H4.3125L0.25 18.5625V12.5625H24.5625L28.5625 8.5625Z" fill="#FF4C00"/>
</svg>
