<svg width="41" height="40" viewBox="0 0 41 40" fill="none" xmlns="http://www.w3.org/2000/svg">
<rect x="40.5" width="40" height="40" rx="20" transform="rotate(90 40.5 0)" fill="#313131"/>
<path d="M13.732 21.1778C13.7183 21.1914 13.6132 21.6101 13.4986 22.1082C13.384 22.6062 13.3077 23.0191 13.329 23.0258C13.3503 23.0323 13.696 23.0838 14.0971 23.14C14.9028 23.2529 15.8433 23.5267 16.4315 23.8193C18.2647 24.7316 19.4782 26.3689 19.7931 28.3552L19.8733 28.8609L21.4933 28.8604L21.5703 28.402C22.0752 25.3982 24.3216 23.4393 27.6826 23.0719C27.9021 23.0479 28.0816 23.0193 28.0816 23.0083C28.0817 22.907 27.6777 21.2286 27.6456 21.1968C27.6225 21.1739 27.4167 21.191 27.1885 21.235C24.6613 21.7215 22.6046 23.1129 21.7442 24.9179L21.5378 25.3509L21.516 10.8194L19.8768 10.8199L19.8458 25.3449L19.569 24.7984C18.8511 23.3808 17.4424 22.2587 15.5513 21.5982C15.0125 21.41 13.7841 21.1261 13.732 21.1778Z" fill="white"/>
</svg>
