<svg width="881" height="627" viewBox="0 0 881 627" fill="none" xmlns="http://www.w3.org/2000/svg">
<g filter="url(#filter0_f_11_14)">
<path d="M761.8 182.112C795.09 228.19 790.36 284.023 756.031 338.238C721.711 392.439 657.91 444.811 573.625 483.698C489.338 522.585 400.681 540.554 324.783 537.205C248.864 533.855 185.991 509.212 152.701 463.134C119.392 417.03 122.131 358.379 154.456 301.363C186.765 244.373 248.543 189.225 332.791 150.355C417.038 111.486 507.692 96.3063 585.608 102.441C663.559 108.579 728.491 136.008 761.8 182.112Z" stroke="#76713A" stroke-width="3"/>
</g>
<path d="M735.8 174.112C769.09 220.19 764.36 276.023 730.031 330.238C695.711 384.439 631.91 436.811 547.625 475.698C463.338 514.585 374.681 532.554 298.783 529.205C222.864 525.855 159.991 501.212 126.701 455.134C93.3918 409.03 96.1314 350.379 128.456 293.363C160.765 236.373 222.543 181.225 306.791 142.355C391.038 103.486 481.692 88.3063 559.608 94.4411C637.559 100.579 702.491 128.008 735.8 174.112Z" stroke="#76713A" stroke-width="3"/>
<defs>
<filter id="filter0_f_11_14" x="125.316" y="97.7549" width="662.731" height="443.214" filterUnits="userSpaceOnUse" color-interpolation-filters="sRGB">
<feFlood flood-opacity="0" result="BackgroundImageFix"/>
<feBlend mode="normal" in="SourceGraphic" in2="BackgroundImageFix" result="shape"/>
<feGaussianBlur stdDeviation="1" result="effect1_foregroundBlur_11_14"/>
</filter>
</defs>
</svg>
