<svg width="154" height="101" viewBox="0 0 154 101" fill="none" xmlns="http://www.w3.org/2000/svg">
<g clip-path="url(#clip0_1965_5961)">
<g clip-path="url(#clip1_1965_5961)">
<g clip-path="url(#clip2_1965_5961)">
<path d="M97.995 -0.00244141L99.6142 6.56126L103.99 8.99006L99.6142 11.4189L97.995 17.9826L96.3758 11.4189L92 8.99006L96.3758 6.56126L97.995 -0.00244141Z" fill="#F9F8EE"/>
</g>
</g>
</g>
<g clip-path="url(#clip3_1965_5961)">
<g clip-path="url(#clip4_1965_5961)">
<g clip-path="url(#clip5_1965_5961)">
<path d="M141.005 6.99756L144.515 21.2253L154 26.4901L144.515 31.7548L141.005 45.9826L137.495 31.7548L128.01 26.4901L137.495 21.2253L141.005 6.99756Z" fill="#F9F8EE"/>
</g>
</g>
</g>
<g clip-path="url(#clip6_1965_5961)">
<g clip-path="url(#clip7_1965_5961)">
<g clip-path="url(#clip8_1965_5961)">
<path d="M78.995 62.0076L82.5048 76.2353L91.99 81.5001L82.5048 86.7648L78.995 100.993L75.4852 86.7648L66 81.5001L75.4852 76.2353L78.995 62.0076Z" fill="#F9F8EE"/>
</g>
</g>
</g>
<g clip-path="url(#clip9_1965_5961)">
<g clip-path="url(#clip10_1965_5961)">
<g clip-path="url(#clip11_1965_5961)">
<path d="M20 10L25.4018 31.8972L40 40L25.4018 48.1028L20 70L14.5982 48.1028L0 40L14.5982 31.8972L20 10Z" fill="#F9F8EE"/>
</g>
</g>
</g>
<defs>
<clipPath id="clip0_1965_5961">
<rect width="11.99" height="17.98" fill="white" transform="translate(92)"/>
</clipPath>
<clipPath id="clip1_1965_5961">
<rect width="11.99" height="17.98" fill="white" transform="translate(92)"/>
</clipPath>
<clipPath id="clip2_1965_5961">
<rect width="11.99" height="17.985" fill="white" transform="translate(92 -0.00244141)"/>
</clipPath>
<clipPath id="clip3_1965_5961">
<rect width="25.99" height="38.98" fill="white" transform="translate(128.01 7)"/>
</clipPath>
<clipPath id="clip4_1965_5961">
<rect width="25.99" height="38.98" fill="white" transform="translate(128.01 7)"/>
</clipPath>
<clipPath id="clip5_1965_5961">
<rect width="25.99" height="38.985" fill="white" transform="translate(128.01 6.99756)"/>
</clipPath>
<clipPath id="clip6_1965_5961">
<rect width="25.99" height="38.98" fill="white" transform="translate(66 62.01)"/>
</clipPath>
<clipPath id="clip7_1965_5961">
<rect width="25.99" height="38.98" fill="white" transform="translate(66 62.01)"/>
</clipPath>
<clipPath id="clip8_1965_5961">
<rect width="25.99" height="38.985" fill="white" transform="translate(66 62.0076)"/>
</clipPath>
<clipPath id="clip9_1965_5961">
<rect width="40" height="60" fill="white" transform="translate(0 10)"/>
</clipPath>
<clipPath id="clip10_1965_5961">
<rect width="40" height="60" fill="white" transform="translate(0 10)"/>
</clipPath>
<clipPath id="clip11_1965_5961">
<rect width="40" height="60" fill="white" transform="translate(0 10)"/>
</clipPath>
</defs>
</svg>
